<?xml version="1.0" encoding="UTF-8" standalone="no"?>
<svg
   height="426.66667pt"
   viewBox="0 0 426.66667 426.66667"
   width="426.66667pt"
   version="1.1"
   id="svg6"
   sodipodi:docname="arrow_left.svg"
   inkscape:version="1.2.2 (b0a8486541, 2022-12-01)"
   xmlns:inkscape="http://www.inkscape.org/namespaces/inkscape"
   xmlns:sodipodi="http://sodipodi.sourceforge.net/DTD/sodipodi-0.dtd"
   xmlns="http://www.w3.org/2000/svg"
   xmlns:svg="http://www.w3.org/2000/svg">
  <defs
     id="defs10" />
  <sodipodi:namedview
     id="namedview8"
     pagecolor="#ffffff"
     bordercolor="#666666"
     borderopacity="1.0"
     inkscape:showpageshadow="2"
     inkscape:pageopacity="0.0"
     inkscape:pagecheckerboard="0"
     inkscape:deskcolor="#d1d1d1"
     inkscape:document-units="pt"
     showgrid="false"
     inkscape:zoom="0.91757815"
     inkscape:cx="284.98935"
     inkscape:cy="284.44444"
     inkscape:window-width="1366"
     inkscape:window-height="703"
     inkscape:window-x="0"
     inkscape:window-y="0"
     inkscape:window-maximized="1"
     inkscape:current-layer="svg6" />
  <path
     d="m213.332031 0c-117.820312 0-213.332031 95.511719-213.332031 213.332031 0 117.820313 95.511719 213.335938 213.332031 213.335938 117.820313 0 213.335938-95.515625 213.335938-213.335938-.132813-117.765625-95.566407-213.199219-213.335938-213.332031zm0 405.332031c-106.039062 0-192-85.960937-192-192 0-106.039062 85.960938-192 192-192 106.039063 0 192 85.960938 192 192-.121093 105.988281-86.011719 191.878907-192 192zm0 0"
     id="path2" />
  <path
     d="m 259.63415,296.03089 c 4.4375,3.8789 11.17579,3.42578 15.05469,-1.00782 3.875,-4.4375 3.42188,-11.17578 -1.01172,-15.05468 l -76.15625,-66.63282 76.16016,-66.63672 c 4.4375,-3.8789 4.88672,-10.61718 1.01172,-15.05078 -3.87891,-4.4375 -10.61719,-4.89062 -15.05469,-1.01172 l -85.33203,74.66797 c -2.31641,2.02344 -3.64453,4.95313 -3.64453,8.03125 0,3.07813 1.32812,6.00391 3.64453,8.03125 z m 0,0"
     id="path4" />
</svg>
