<svg height="426.66667pt" viewBox="0 0 426.66667 426.66667" width="426.66667pt" xmlns="http://www.w3.org/2000/svg"><path d="m213.332031 0c-117.820312 0-213.332031 95.511719-213.332031 213.332031 0 117.820313 95.511719 213.335938 213.332031 213.335938 117.820313 0 213.335938-95.515625 213.335938-213.335938-.132813-117.765625-95.566407-213.199219-213.335938-213.332031zm0 405.332031c-106.039062 0-192-85.960937-192-192 0-106.039062 85.960938-192 192-192 106.039063 0 192 85.960938 192 192-.121093 105.988281-86.011719 191.878907-192 192zm0 0"/><path d="m188.355469 130.636719c-4.4375-3.878907-11.175781-3.425781-15.054688 1.007812-3.875 4.4375-3.421875 11.175781 1.011719 15.054688l76.15625 66.632812-76.160156 66.636719c-4.4375 3.878906-4.886719 10.617188-1.011719 15.050781 3.878906 4.4375 10.617187 4.890625 15.054687 1.011719l85.332032-74.667969c2.316406-2.023437 3.644531-4.953125 3.644531-8.03125s-1.328125-6.003906-3.644531-8.03125zm0 0"/></svg>