<?xml version="1.0" encoding="UTF-8" standalone="no"?>
<!-- Generator: Adobe Illustrator 19.0.0, SVG Export Plug-In . SVG Version: 6.00 Build 0)  -->

<svg
   version="1.1"
   id="Layer_1"
   x="0px"
   y="0px"
   viewBox="0 0 492.004 492.004"
   style="enable-background:new 0 0 492.004 492.004;"
   xml:space="preserve"
   sodipodi:docname="left_arrow.svg"
   inkscape:version="1.2.2 (b0a8486541, 2022-12-01)"
   xmlns:inkscape="http://www.inkscape.org/namespaces/inkscape"
   xmlns:sodipodi="http://sodipodi.sourceforge.net/DTD/sodipodi-0.dtd"
   xmlns="http://www.w3.org/2000/svg"
   xmlns:svg="http://www.w3.org/2000/svg"><defs
   id="defs41" /><sodipodi:namedview
   id="namedview39"
   pagecolor="#ffffff"
   bordercolor="#666666"
   borderopacity="1.0"
   inkscape:showpageshadow="2"
   inkscape:pageopacity="0.0"
   inkscape:pagecheckerboard="0"
   inkscape:deskcolor="#d1d1d1"
   showgrid="false"
   inkscape:zoom="1.060967"
   inkscape:cx="246.47327"
   inkscape:cy="246.002"
   inkscape:window-width="1366"
   inkscape:window-height="703"
   inkscape:window-x="0"
   inkscape:window-y="0"
   inkscape:window-maximized="1"
   inkscape:current-layer="Layer_1" />
<g
   id="g6"
   transform="rotate(180,246.00203,246.002)">
	<g
   id="g4">
		<path
   d="M 382.678,226.804 163.73,7.86 C 158.666,2.792 151.906,0 144.698,0 137.49,0 130.73,2.792 125.666,7.86 l -16.124,16.12 c -10.492,10.504 -10.492,27.576 0,38.064 L 293.398,245.9 109.338,429.96 c -5.064,5.068 -7.86,11.824 -7.86,19.028 0,7.212 2.796,13.968 7.86,19.04 l 16.124,16.116 c 5.068,5.068 11.824,7.86 19.032,7.86 7.208,0 13.968,-2.792 19.032,-7.86 L 382.678,265 c 5.076,-5.084 7.864,-11.872 7.848,-19.088 0.016,-7.244 -2.772,-14.028 -7.848,-19.108 z"
   id="path2" />
	</g>
</g>
<g
   id="g8">
</g>
<g
   id="g10">
</g>
<g
   id="g12">
</g>
<g
   id="g14">
</g>
<g
   id="g16">
</g>
<g
   id="g18">
</g>
<g
   id="g20">
</g>
<g
   id="g22">
</g>
<g
   id="g24">
</g>
<g
   id="g26">
</g>
<g
   id="g28">
</g>
<g
   id="g30">
</g>
<g
   id="g32">
</g>
<g
   id="g34">
</g>
<g
   id="g36">
</g>
</svg>
